<?xml version="1.0" standalone="no"?>
<!DOCTYPE svg PUBLIC "-//W3C//DTD SVG 20010904//EN"
 "http://www.w3.org/TR/2001/REC-SVG-20010904/DTD/svg10.dtd">
<svg version="1.0" xmlns="http://www.w3.org/2000/svg"
 width="818.000000pt" height="1280.000000pt" viewBox="0 0 818.000000 1280.000000"
 preserveAspectRatio="xMidYMid meet">
<metadata>
Created by potrace 1.15, written by Peter Selinger 2001-2017
</metadata>
<g transform="translate(0.000000,1280.000000) scale(0.100000,-0.100000)"
fill="#000000" stroke="none">
<path d="M1395 12611 l-1390 -186 -3 -6213 -2 -6212 102 1 c75 0 491 52 1503
188 l1400 187 5 2595 c6 2858 1 2656 66 2948 91 407 277 686 549 823 232 117
643 143 920 58 128 -40 222 -96 316 -190 166 -166 233 -359 291 -840 8 -68 12
-892 15 -2932 l4 -2838 102 1 c74 0 491 52 1502 188 l1400 187 3 3005 c3 3369
5 3281 -69 3684 -181 986 -779 1836 -1589 2263 -330 174 -649 269 -1120 334
-152 21 -742 17 -895 -5 -456 -68 -777 -186 -1164 -428 -86 -54 -236 -158
-303 -210 l-28 -21 0 1901 0 1901 -112 -1 c-85 -1 -459 -48 -1503 -188z"/>
</g>
</svg>
